<svg width="171" height="50" viewBox="0 0 171 50" fill="none" xmlns="http://www.w3.org/2000/svg">
<path d="M0 10C0 4.47715 4.47715 0 10 0H156V50H10C4.47716 50 0 45.5228 0 40V10Z" fill="white"/>
<path d="M21.26 18.318H31.556V30H28.748V20.298H24.068V30H21.26V18.318ZM38.1425 30.18C37.6025 30.18 37.1585 30.162 36.8105 30.126C36.4625 30.09 36.0905 30.018 35.6945 29.91C35.2625 29.79 34.9145 29.622 34.6505 29.406C34.3865 29.178 34.1645 28.86 33.9845 28.452C33.8045 28.056 33.7145 27.576 33.7145 27.012V24.438C33.7145 23.862 33.8045 23.358 33.9845 22.926C34.1645 22.494 34.3985 22.158 34.6865 21.918C34.9385 21.714 35.2685 21.546 35.6765 21.414C36.0965 21.27 36.5045 21.18 36.9005 21.144C37.3565 21.12 37.7705 21.108 38.1425 21.108C38.6945 21.108 39.1325 21.126 39.4565 21.162C39.7925 21.186 40.1585 21.258 40.5545 21.378C40.9865 21.51 41.3345 21.69 41.5985 21.918C41.8745 22.146 42.1085 22.47 42.3005 22.89C42.4805 23.322 42.5705 23.838 42.5705 24.438V27.012C42.5705 27.552 42.4805 28.026 42.3005 28.434C42.1325 28.842 41.9105 29.16 41.6345 29.388C41.3945 29.592 41.0645 29.76 40.6445 29.892C40.2365 30.012 39.8345 30.09 39.4385 30.126C39.0785 30.162 38.6465 30.18 38.1425 30.18ZM38.1425 28.542C38.6345 28.542 39.0065 28.506 39.2585 28.434C39.5105 28.35 39.6845 28.224 39.7805 28.056C39.8885 27.888 39.9425 27.642 39.9425 27.318V24.024C39.9425 23.544 39.8165 23.208 39.5645 23.016C39.3125 22.824 38.8385 22.728 38.1425 22.728C37.4465 22.728 36.9725 22.824 36.7205 23.016C36.4685 23.208 36.3425 23.544 36.3425 24.024V27.318C36.3425 27.642 36.3905 27.888 36.4865 28.056C36.5945 28.224 36.7745 28.35 37.0265 28.434C37.2785 28.506 37.6505 28.542 38.1425 28.542ZM44.6188 21.288H47.2468V24.816C47.4388 24.816 47.5948 24.792 47.7148 24.744C47.8348 24.684 47.9548 24.582 48.0748 24.438L50.5948 21.288H53.3308L49.8388 25.32C50.3308 25.548 50.8108 25.998 51.2788 26.67L53.6008 30H50.5768L48.6508 27.156C48.4348 26.844 48.2308 26.646 48.0388 26.562C47.8468 26.478 47.5828 26.436 47.2468 26.436V30H44.6188V21.288ZM57.2274 30.18C56.4114 30.18 55.7994 30.108 55.3914 29.964C54.9954 29.808 54.7134 29.538 54.5454 29.154C54.3894 28.758 54.3114 28.17 54.3114 27.39C54.3114 26.694 54.3954 26.148 54.5634 25.752C54.7434 25.356 55.0254 25.074 55.4094 24.906C55.8054 24.726 56.3454 24.636 57.0294 24.636H59.9814V24.042C59.9814 23.67 59.9274 23.394 59.8194 23.214C59.7234 23.034 59.5374 22.908 59.2614 22.836C58.9974 22.764 58.5954 22.728 58.0554 22.728C57.3114 22.728 56.2914 22.8 54.9954 22.944V21.288C55.9434 21.168 57.0534 21.108 58.3254 21.108C59.4414 21.108 60.2994 21.192 60.8994 21.36C61.5114 21.528 61.9494 21.816 62.2134 22.224C62.4774 22.632 62.6094 23.226 62.6094 24.006V30H60.0354V29.208C59.8314 29.556 59.5554 29.802 59.2074 29.946C58.8594 30.102 58.1994 30.18 57.2274 30.18ZM58.2534 28.542C58.7814 28.542 59.1594 28.524 59.3874 28.488C59.5554 28.464 59.6694 28.428 59.7294 28.38C59.8014 28.332 59.8614 28.254 59.9094 28.146C59.9574 28.062 59.9814 27.936 59.9814 27.768V26.076H58.1814C57.7734 26.076 57.4854 26.106 57.3174 26.166C57.1494 26.214 57.0354 26.322 56.9754 26.49C56.9154 26.646 56.8854 26.928 56.8854 27.336C56.8854 27.732 56.9154 28.008 56.9754 28.164C57.0354 28.32 57.1494 28.422 57.3174 28.47C57.4974 28.518 57.8094 28.542 58.2534 28.542ZM67.4955 30.18C66.4275 30.18 65.3535 30.078 64.2735 29.874V28.146C64.9815 28.302 65.5575 28.41 66.0015 28.47C66.4455 28.518 66.8835 28.542 67.3155 28.542C67.8795 28.542 68.3055 28.518 68.5935 28.47C68.8815 28.422 69.0855 28.332 69.2055 28.2C69.3255 28.056 69.3855 27.852 69.3855 27.588V27.228C69.3855 26.88 69.2475 26.646 68.9715 26.526C68.7075 26.394 68.2275 26.328 67.5315 26.328H65.7675V24.69H67.5315C68.0835 24.69 68.4495 24.618 68.6295 24.474C68.8215 24.33 68.9175 24.096 68.9175 23.772V23.61C68.9175 23.37 68.8755 23.19 68.7915 23.07C68.7195 22.95 68.5695 22.866 68.3415 22.818C68.1255 22.758 67.7835 22.728 67.3155 22.728C66.8715 22.728 66.4515 22.764 66.0555 22.836C65.6715 22.896 65.1555 23.004 64.5075 23.16V21.432C65.6835 21.216 66.8115 21.108 67.8915 21.108C68.8995 21.108 69.6615 21.168 70.1775 21.288C70.6935 21.408 71.0475 21.612 71.2395 21.9C71.4435 22.176 71.5455 22.584 71.5455 23.124V23.88C71.5455 24.24 71.4435 24.54 71.2395 24.78C71.0355 25.02 70.7655 25.182 70.4295 25.266V25.356C70.9335 25.464 71.3235 25.668 71.5995 25.968C71.8755 26.256 72.0135 26.592 72.0135 26.976V27.714C72.0135 28.35 71.8515 28.848 71.5275 29.208C71.2155 29.568 70.7295 29.82 70.0695 29.964C69.4215 30.108 68.5635 30.18 67.4955 30.18ZM76.3875 30.18C75.5715 30.18 74.9595 30.108 74.5515 29.964C74.1555 29.808 73.8735 29.538 73.7055 29.154C73.5495 28.758 73.4715 28.17 73.4715 27.39C73.4715 26.694 73.5555 26.148 73.7235 25.752C73.9035 25.356 74.1855 25.074 74.5695 24.906C74.9655 24.726 75.5055 24.636 76.1895 24.636H79.1415V24.042C79.1415 23.67 79.0875 23.394 78.9795 23.214C78.8835 23.034 78.6975 22.908 78.4215 22.836C78.1575 22.764 77.7555 22.728 77.2155 22.728C76.4715 22.728 75.4515 22.8 74.1555 22.944V21.288C75.1035 21.168 76.2135 21.108 77.4855 21.108C78.6015 21.108 79.4595 21.192 80.0595 21.36C80.6715 21.528 81.1095 21.816 81.3735 22.224C81.6375 22.632 81.7695 23.226 81.7695 24.006V30H79.1955V29.208C78.9915 29.556 78.7155 29.802 78.3675 29.946C78.0195 30.102 77.3595 30.18 76.3875 30.18ZM77.4135 28.542C77.9415 28.542 78.3195 28.524 78.5475 28.488C78.7155 28.464 78.8295 28.428 78.8895 28.38C78.9615 28.332 79.0215 28.254 79.0695 28.146C79.1175 28.062 79.1415 27.936 79.1415 27.768V26.076H77.3415C76.9335 26.076 76.6455 26.106 76.4775 26.166C76.3095 26.214 76.1955 26.322 76.1355 26.49C76.0755 26.646 76.0455 26.928 76.0455 27.336C76.0455 27.732 76.0755 28.008 76.1355 28.164C76.1955 28.32 76.3095 28.422 76.4775 28.47C76.6575 28.518 76.9695 28.542 77.4135 28.542ZM86.1697 23.016H83.2897V21.288H91.6777V23.016H88.7977V30H86.1697V23.016ZM93.1872 21.288H95.8152V24.204H96.8232C98.0352 24.204 98.9352 24.27 99.5232 24.402C100.123 24.534 100.531 24.768 100.747 25.104C100.975 25.44 101.089 25.956 101.089 26.652V27.678C101.089 28.506 100.747 29.1 100.063 29.46C99.3792 29.82 98.3172 30 96.8772 30H93.1872V21.288ZM96.7512 28.362C97.2312 28.362 97.5852 28.332 97.8132 28.272C98.0412 28.2 98.1912 28.092 98.2632 27.948C98.3352 27.804 98.3712 27.588 98.3712 27.3V26.814C98.3712 26.55 98.3232 26.352 98.2272 26.22C98.1432 26.076 97.9872 25.98 97.7592 25.932C97.5432 25.884 97.2192 25.86 96.7872 25.86H95.7792V28.362H96.7512ZM107.215 21.288H112.039C112.987 21.288 113.701 21.366 114.181 21.522C114.661 21.678 114.973 21.906 115.117 22.206C115.273 22.494 115.351 22.896 115.351 23.412V23.718C115.351 24.174 115.219 24.516 114.955 24.744C114.703 24.972 114.295 25.146 113.731 25.266V25.338C114.391 25.446 114.901 25.656 115.261 25.968C115.621 26.28 115.801 26.682 115.801 27.174V27.696C115.801 28.488 115.507 29.07 114.919 29.442C114.331 29.814 113.365 30 112.021 30H107.215V21.288ZM111.121 24.726C111.589 24.726 111.937 24.696 112.165 24.636C112.393 24.576 112.549 24.486 112.633 24.366C112.717 24.234 112.759 24.042 112.759 23.79V23.574C112.759 23.346 112.651 23.172 112.435 23.052C112.231 22.932 111.775 22.872 111.067 22.872H109.807V24.726H111.121ZM111.175 28.416C111.907 28.416 112.423 28.338 112.723 28.182C113.023 28.026 113.173 27.78 113.173 27.444V27.12C113.173 26.892 113.113 26.718 112.993 26.598C112.885 26.478 112.699 26.394 112.435 26.346C112.171 26.298 111.781 26.274 111.265 26.274H109.807V28.416H111.175ZM121.921 30.18C121.465 30.18 121.105 30.168 120.841 30.144C120.577 30.132 120.253 30.102 119.869 30.054C119.485 30.006 119.167 29.922 118.915 29.802C118.675 29.682 118.423 29.502 118.159 29.262C117.667 28.854 117.421 28.158 117.421 27.174V24.276C117.421 23.484 117.601 22.824 117.961 22.296C118.093 22.104 118.285 21.93 118.537 21.774C118.801 21.606 119.065 21.474 119.329 21.378C119.545 21.306 119.833 21.246 120.193 21.198C120.553 21.15 120.871 21.12 121.147 21.108H122.101C122.773 21.108 123.655 21.216 124.747 21.432V23.16C123.511 22.872 122.563 22.728 121.903 22.728C120.691 22.728 120.085 23.136 120.085 23.952V27.156C120.085 28.08 120.751 28.542 122.083 28.542C122.731 28.542 123.661 28.41 124.873 28.146V29.874C123.781 30.078 122.797 30.18 121.921 30.18ZM130.731 30.18C127.647 30.18 126.105 29.238 126.105 27.354V24.222C126.105 23.13 126.453 22.338 127.149 21.846C127.857 21.354 128.943 21.108 130.407 21.108C131.787 21.108 132.795 21.348 133.431 21.828C134.079 22.296 134.403 23.094 134.403 24.222V26.346H128.751V27.138C128.751 27.642 128.931 28.002 129.291 28.218C129.651 28.434 130.299 28.542 131.235 28.542C132.099 28.542 133.071 28.416 134.151 28.164V29.838C133.083 30.066 131.943 30.18 130.731 30.18ZM131.901 24.852V23.592C131.901 23.304 131.781 23.088 131.541 22.944C131.313 22.8 130.923 22.728 130.371 22.728C129.735 22.728 129.309 22.8 129.093 22.944C128.865 23.1 128.751 23.316 128.751 23.592V24.852H131.901Z" fill="#3C5858"/>
<path fill-rule="evenodd" clip-rule="evenodd" d="M158 0C163.523 0 168 4.47715 168 10V16.0593C168 16.5917 167.532 17 167 17C162.582 17 159 20.5817 159 25C159 29.4183 162.582 33 167 33C167.532 33 168 33.4083 168 33.9407V40C168 45.5228 163.523 50 158 50H156C154.895 50 154 49.1046 154 48V2C154 0.895431 154.895 0 156 0H158Z" fill="white"/>
<circle cx="4" cy="4" r="4" transform="matrix(-1 0 0 1 171 21)" fill="#607282"/>
</svg>
