<svg width="205" height="50" viewBox="0 0 205 50" fill="none" xmlns="http://www.w3.org/2000/svg">
<path d="M0 10C0 4.47715 4.47715 0 10 0H190V50H10C4.47715 50 0 45.5228 0 40V10Z" fill="#FF2E4C"/>
<path d="M20.27 28.002H20.522C21.014 28.002 21.41 27.816 21.71 27.444C22.022 27.06 22.262 26.364 22.43 25.356C22.598 24.348 22.682 22.92 22.682 21.072V18.318H31.178V28.002H32.888V32.718H30.368V30H22.79V32.718H20.27V28.002ZM28.37 28.02V20.298H25.202V21.738C25.202 24.774 24.812 26.868 24.032 28.02H28.37ZM38.6171 30.18C38.0771 30.18 37.6331 30.162 37.2851 30.126C36.9371 30.09 36.5651 30.018 36.1691 29.91C35.7371 29.79 35.3891 29.622 35.1251 29.406C34.8611 29.178 34.6391 28.86 34.4591 28.452C34.2791 28.056 34.1891 27.576 34.1891 27.012V24.438C34.1891 23.862 34.2791 23.358 34.4591 22.926C34.6391 22.494 34.8731 22.158 35.1611 21.918C35.4131 21.714 35.7431 21.546 36.1511 21.414C36.5711 21.27 36.9791 21.18 37.3751 21.144C37.8311 21.12 38.2451 21.108 38.6171 21.108C39.1691 21.108 39.6071 21.126 39.9311 21.162C40.2671 21.186 40.6331 21.258 41.0291 21.378C41.4611 21.51 41.8091 21.69 42.0731 21.918C42.3491 22.146 42.5831 22.47 42.7751 22.89C42.9551 23.322 43.0451 23.838 43.0451 24.438V27.012C43.0451 27.552 42.9551 28.026 42.7751 28.434C42.6071 28.842 42.3851 29.16 42.1091 29.388C41.8691 29.592 41.5391 29.76 41.1191 29.892C40.7111 30.012 40.3091 30.09 39.9131 30.126C39.5531 30.162 39.1211 30.18 38.6171 30.18ZM38.6171 28.542C39.1091 28.542 39.4811 28.506 39.7331 28.434C39.9851 28.35 40.1591 28.224 40.2551 28.056C40.3631 27.888 40.4171 27.642 40.4171 27.318V24.024C40.4171 23.544 40.2911 23.208 40.0391 23.016C39.7871 22.824 39.3131 22.728 38.6171 22.728C37.9211 22.728 37.4471 22.824 37.1951 23.016C36.9431 23.208 36.8171 23.544 36.8171 24.024V27.318C36.8171 27.642 36.8651 27.888 36.9611 28.056C37.0691 28.224 37.2491 28.35 37.5011 28.434C37.7531 28.506 38.1251 28.542 38.6171 28.542ZM49.3594 30.18C48.3274 30.18 47.5054 30.108 46.8934 29.964C46.2934 29.82 45.8194 29.496 45.4714 28.992C45.1354 28.476 44.9674 27.702 44.9674 26.67V23.016C44.9674 21.948 45.1354 21.072 45.4714 20.388C45.8194 19.704 46.2814 19.17 46.8574 18.786C47.4454 18.402 48.1714 18.084 49.0354 17.832L49.9354 17.598C50.4274 17.478 50.9674 17.34 51.5554 17.184C52.1434 17.016 52.6474 16.848 53.0674 16.68V18.912C52.3834 19.248 51.2194 19.596 49.5754 19.956C48.8674 20.112 48.3034 20.298 47.8834 20.514C47.4754 20.718 47.1694 21 46.9654 21.36C46.7614 21.72 46.6594 22.194 46.6594 22.782V23.754H46.6774C46.8454 23.046 47.1934 22.53 47.7214 22.206C48.2494 21.882 49.0774 21.72 50.2054 21.72C51.1894 21.72 51.9334 21.852 52.4374 22.116C52.9534 22.38 53.3014 22.776 53.4814 23.304C53.6614 23.832 53.7514 24.558 53.7514 25.482V26.67C53.7514 27.522 53.6314 28.2 53.3914 28.704C53.1514 29.196 52.7134 29.568 52.0774 29.82C51.4414 30.06 50.5354 30.18 49.3594 30.18ZM49.3954 28.542C49.9234 28.542 50.3074 28.494 50.5474 28.398C50.7874 28.302 50.9434 28.158 51.0154 27.966C51.0874 27.774 51.1234 27.486 51.1234 27.102V24.87C51.1234 24.426 51.0874 24.108 51.0154 23.916C50.9434 23.712 50.7934 23.568 50.5654 23.484C50.3374 23.4 49.9654 23.358 49.4494 23.358C48.9094 23.358 48.5074 23.412 48.2434 23.52C47.9914 23.616 47.8174 23.778 47.7214 24.006C47.6374 24.222 47.5954 24.54 47.5954 24.96V27.102C47.5954 27.474 47.6374 27.762 47.7214 27.966C47.8174 28.158 47.9914 28.302 48.2434 28.398C48.5074 28.494 48.8914 28.542 49.3954 28.542ZM58.2645 30.18C57.4485 30.18 56.8365 30.108 56.4285 29.964C56.0325 29.808 55.7505 29.538 55.5825 29.154C55.4265 28.758 55.3485 28.17 55.3485 27.39C55.3485 26.694 55.4325 26.148 55.6005 25.752C55.7805 25.356 56.0625 25.074 56.4465 24.906C56.8425 24.726 57.3825 24.636 58.0665 24.636H61.0185V24.042C61.0185 23.67 60.9645 23.394 60.8565 23.214C60.7605 23.034 60.5745 22.908 60.2985 22.836C60.0345 22.764 59.6325 22.728 59.0925 22.728C58.3485 22.728 57.3285 22.8 56.0325 22.944V21.288C56.9805 21.168 58.0905 21.108 59.3625 21.108C60.4785 21.108 61.3365 21.192 61.9365 21.36C62.5485 21.528 62.9865 21.816 63.2505 22.224C63.5145 22.632 63.6465 23.226 63.6465 24.006V30H61.0725V29.208C60.8685 29.556 60.5925 29.802 60.2445 29.946C59.8965 30.102 59.2365 30.18 58.2645 30.18ZM59.2905 28.542C59.8185 28.542 60.1965 28.524 60.4245 28.488C60.5925 28.464 60.7065 28.428 60.7665 28.38C60.8385 28.332 60.8985 28.254 60.9465 28.146C60.9945 28.062 61.0185 27.936 61.0185 27.768V26.076H59.2185C58.8105 26.076 58.5225 26.106 58.3545 26.166C58.1865 26.214 58.0725 26.322 58.0125 26.49C57.9525 26.646 57.9225 26.928 57.9225 27.336C57.9225 27.732 57.9525 28.008 58.0125 28.164C58.0725 28.32 58.1865 28.422 58.3545 28.47C58.5345 28.518 58.8465 28.542 59.2905 28.542ZM65.9586 21.288H70.7826C71.7306 21.288 72.4446 21.366 72.9246 21.522C73.4046 21.678 73.7166 21.906 73.8606 22.206C74.0166 22.494 74.0946 22.896 74.0946 23.412V23.718C74.0946 24.174 73.9626 24.516 73.6986 24.744C73.4466 24.972 73.0386 25.146 72.4746 25.266V25.338C73.1346 25.446 73.6446 25.656 74.0046 25.968C74.3646 26.28 74.5446 26.682 74.5446 27.174V27.696C74.5446 28.488 74.2506 29.07 73.6626 29.442C73.0746 29.814 72.1086 30 70.7646 30H65.9586V21.288ZM69.8646 24.726C70.3326 24.726 70.6806 24.696 70.9086 24.636C71.1366 24.576 71.2926 24.486 71.3766 24.366C71.4606 24.234 71.5026 24.042 71.5026 23.79V23.574C71.5026 23.346 71.3946 23.172 71.1786 23.052C70.9746 22.932 70.5186 22.872 69.8106 22.872H68.5506V24.726H69.8646ZM69.9186 28.416C70.6506 28.416 71.1666 28.338 71.4666 28.182C71.7666 28.026 71.9166 27.78 71.9166 27.444V27.12C71.9166 26.892 71.8566 26.718 71.7366 26.598C71.6286 26.478 71.4426 26.394 71.1786 26.346C70.9146 26.298 70.5246 26.274 70.0086 26.274H68.5506V28.416H69.9186ZM76.4176 21.288H79.0456V26.976L82.4836 21.288H85.1116V30H82.4836V24.15L79.0456 30H76.4176V21.288ZM89.5095 23.016H86.6295V21.288H95.0175V23.016H92.1375V30H89.5095V23.016ZM96.527 21.288H99.155V24.204H100.163C101.375 24.204 102.275 24.27 102.863 24.402C103.463 24.534 103.871 24.768 104.087 25.104C104.315 25.44 104.429 25.956 104.429 26.652V27.678C104.429 28.506 104.087 29.1 103.403 29.46C102.719 29.82 101.657 30 100.217 30H96.527V21.288ZM100.091 28.362C100.571 28.362 100.925 28.332 101.153 28.272C101.381 28.2 101.531 28.092 101.603 27.948C101.675 27.804 101.711 27.588 101.711 27.3V26.814C101.711 26.55 101.663 26.352 101.567 26.22C101.483 26.076 101.327 25.98 101.099 25.932C100.883 25.884 100.559 25.86 100.127 25.86H99.119V28.362H100.091ZM114.802 30.18C114.346 30.18 113.986 30.168 113.722 30.144C113.458 30.132 113.134 30.102 112.75 30.054C112.366 30.006 112.048 29.922 111.796 29.802C111.556 29.682 111.304 29.502 111.04 29.262C110.548 28.854 110.302 28.158 110.302 27.174V24.276C110.302 23.484 110.482 22.824 110.842 22.296C110.974 22.104 111.166 21.93 111.418 21.774C111.682 21.606 111.946 21.474 112.21 21.378C112.426 21.306 112.714 21.246 113.074 21.198C113.434 21.15 113.752 21.12 114.028 21.108H114.982C115.654 21.108 116.536 21.216 117.628 21.432V23.16C116.392 22.872 115.444 22.728 114.784 22.728C113.572 22.728 112.966 23.136 112.966 23.952V27.156C112.966 28.08 113.632 28.542 114.964 28.542C115.612 28.542 116.542 28.41 117.754 28.146V29.874C116.662 30.078 115.678 30.18 114.802 30.18ZM119.238 21.288H121.866V24.816C122.058 24.816 122.214 24.792 122.334 24.744C122.454 24.684 122.574 24.582 122.694 24.438L125.214 21.288H127.95L124.458 25.32C124.95 25.548 125.43 25.998 125.898 26.67L128.22 30H125.196L123.27 27.156C123.054 26.844 122.85 26.646 122.658 26.562C122.466 26.478 122.202 26.436 121.866 26.436V30H119.238V21.288ZM129.381 21.288H132.009V26.976L135.447 21.288H138.075V30H135.447V24.15L132.009 30H129.381V21.288ZM139.592 28.272H140.114C140.354 28.272 140.588 28.11 140.816 27.786C141.056 27.45 141.26 26.862 141.428 26.022C141.596 25.17 141.68 24.03 141.68 22.602V21.288H148.448V28.272H149.798V32.412H147.638V30H141.986V32.412H139.592V28.272ZM145.82 28.326V22.944H143.84V23.178C143.84 24.39 143.75 25.434 143.57 26.31C143.39 27.186 143.132 27.858 142.796 28.326H145.82ZM151.388 21.288H154.016V24.816C154.208 24.816 154.364 24.792 154.484 24.744C154.604 24.684 154.724 24.582 154.844 24.438L157.364 21.288H160.1L156.608 25.32C157.1 25.548 157.58 25.998 158.048 26.67L160.37 30H157.346L155.42 27.156C155.204 26.844 155 26.646 154.808 26.562C154.616 26.478 154.352 26.436 154.016 26.436V30H151.388V21.288ZM163.997 29.928L160.523 21.288H163.385L165.347 27.444L167.129 21.288H169.847L165.077 33.744H162.413L163.997 29.928Z" fill="white"/>
<path fill-rule="evenodd" clip-rule="evenodd" d="M192 0C197.523 0 202 4.47715 202 10V16.0593C202 16.5917 201.532 17 201 17C196.582 17 193 20.5817 193 25C193 29.4183 196.582 33 201 33C201.532 33 202 33.4083 202 33.9407V40C202 45.5228 197.523 50 192 50H190C188.895 50 188 49.1046 188 48V2C188 0.895431 188.895 0 190 0H192Z" fill="#FF2E4C"/>
<circle cx="4" cy="4" r="4" transform="matrix(-1 0 0 1 205 21)" fill="#607282"/>
</svg>
